<?xml version="1.0" standalone="no"?>
<!DOCTYPE svg PUBLIC "-//W3C//DTD SVG 20010904//EN"
 "http://www.w3.org/TR/2001/REC-SVG-20010904/DTD/svg10.dtd">
<svg version="1.0" xmlns="http://www.w3.org/2000/svg"
 width="315.000000pt" height="315.000000pt" viewBox="0 0 315.000000 315.000000"
 preserveAspectRatio="xMidYMid meet">
<metadata>
Created by potrace 1.11, written by Peter Selinger 2001-2013
</metadata>
<g transform="translate(0.000000,315.000000) scale(0.100000,-0.100000)"
fill="#000000" stroke="none">
<path d="M1424 3105 c-16 -7 -40 -25 -54 -40 l-25 -27 -3 -248 c-3 -242 -2
-251 23 -344 14 -53 28 -104 30 -114 2 -9 19 -78 38 -152 44 -166 125 -479
141 -540 9 -35 12 106 14 650 1 382 0 709 -3 726 -11 65 -101 115 -161 89z"/>
<path d="M1065 2888 c-31 -95 -141 -432 -245 -748 -104 -316 -217 -660 -251
-765 -34 -104 -64 -193 -68 -197 -3 -4 -117 161 -254 365 l-247 371 0 -136 0
-136 270 -406 c149 -223 272 -406 274 -406 3 0 133 387 141 420 1 3 4 12 8 20
3 8 47 141 97 295 121 372 300 916 307 935 3 8 18 -34 33 -95 15 -60 44 -173
65 -250 20 -77 38 -147 40 -155 2 -8 33 -132 70 -275 37 -143 68 -267 70 -275
2 -8 16 -60 30 -115 15 -55 28 -107 30 -115 2 -8 31 -123 65 -255 34 -132 63
-247 65 -255 2 -8 29 -112 59 -230 31 -118 68 -263 83 -322 15 -59 29 -106 30
-104 2 2 5 12 8 22 6 33 132 591 185 824 28 124 53 236 56 250 3 14 14 62 24
107 11 46 22 94 25 108 11 52 16 75 60 270 26 110 51 226 57 258 14 69 9 78
87 -153 29 -85 56 -164 61 -175 5 -11 24 -67 44 -125 96 -287 189 -556 195
-562 4 -5 47 63 97 150 50 86 151 262 224 390 l135 233 35 -1 c19 -1 54 -2 78
-1 l42 1 0 75 0 75 -122 0 -123 0 -80 -141 c-44 -78 -90 -157 -102 -177 -13
-21 -26 -44 -30 -52 -17 -34 -116 -200 -119 -200 -2 0 -10 21 -18 47 -8 27
-60 181 -116 343 -56 162 -129 374 -161 470 -49 143 -117 340 -146 420 -4 12
-42 -134 -67 -258 -3 -12 -7 -30 -10 -40 -3 -9 -7 -28 -10 -42 -3 -14 -23
-106 -46 -205 -23 -99 -44 -191 -46 -205 -3 -14 -9 -41 -14 -60 -5 -19 -12
-53 -16 -75 -3 -22 -8 -42 -9 -46 -3 -4 -50 -201 -60 -250 -8 -39 -48 -217
-85 -379 -22 -96 -40 -179 -40 -184 0 -35 -18 33 -275 1034 -57 221 -138 534
-186 720 -17 63 -32 122 -34 130 -16 70 -105 403 -108 407 -3 2 -30 -74 -62
-169z"/>
<path d="M2036 2885 c-21 -7 -39 -15 -40 -17 -1 -1 -12 -16 -24 -31 -21 -28
-21 -35 -21 -415 l1 -387 18 75 c11 41 21 86 24 100 2 14 27 127 55 252 28
125 51 234 51 242 0 33 17 13 55 -66 l40 -82 3 117 c2 90 -1 125 -13 150 -26
56 -89 82 -149 62z"/>
<path d="M803 2855 c-18 -7 -42 -29 -53 -47 -19 -31 -20 -49 -19 -363 l1 -330
115 349 115 349 -23 22 c-31 30 -94 39 -136 20z"/>
<path d="M2640 2436 c-44 -16 -80 -67 -81 -115 0 -20 0 -212 -1 -428 0 -377 5
-446 31 -476 4 -4 54 73 112 170 l104 178 2 285 c2 267 1 288 -18 326 -27 57
-88 81 -149 60z"/>
<path d="M190 2223 c-58 -30 -70 -67 -69 -223 l0 -134 122 -183 122 -184 3
321 c2 272 0 325 -13 350 -31 60 -105 84 -165 53z"/>
<path d="M852 1517 l-123 -375 3 -399 c3 -380 4 -399 23 -425 38 -51 109 -65
165 -32 63 38 60 6 58 844 l-3 763 -123 -376z"/>
<path d="M2177 1655 c-3 -11 -45 -193 -92 -405 -47 -212 -92 -412 -100 -445
-33 -138 -35 -158 -14 -191 48 -79 169 -71 213 14 11 22 14 123 14 516 0 451
-4 567 -21 511z"/>
<path d="M120 1166 c0 -172 8 -207 55 -244 49 -38 141 -23 173 29 10 15 -6 44
-104 191 -64 95 -118 175 -120 177 -2 2 -4 -66 -4 -153z"/>
<path d="M1341 697 c-1 -498 1 -583 14 -611 37 -77 139 -90 201 -25 27 29 29
35 32 137 4 104 2 114 -57 345 -34 130 -88 344 -121 475 -34 130 -63 242 -65
247 -2 6 -4 -250 -4 -568z"/>
<path d="M2749 1077 c-25 -45 -76 -135 -114 -200 l-68 -119 30 -30 c63 -63
172 -40 200 42 13 37 17 390 4 390 -3 0 -27 -37 -52 -83z"/>
</g>
</svg>
