
<svg xmlns="http://www.w3.org/2000/svg" x="0px" y="0px"
width="96" height="96"
viewBox="0 0 224 224"
style=" fill:#000000;"><g fill="none" fill-rule="nonzero" stroke="none" stroke-width="1" stroke-linecap="butt" stroke-linejoin="miter" stroke-miterlimit="10" stroke-dasharray="" stroke-dashoffset="0" font-family="none" font-weight="none" font-size="none" text-anchor="none" style="mix-blend-mode: normal"><path d="M0,224v-224h224v224z" fill="none"></path><g id="Layer_1"><g id="surface1"><path d="M102.2,191.33333c-1.4,0 -2.33333,-0.46667 -3.26667,-1.4l-65.33333,-65.33333c-1.86667,-1.86667 -1.86667,-4.66667 0,-6.53333c1.86667,-1.86667 4.66667,-1.86667 6.53333,0l65.33333,65.33333c1.86667,1.86667 1.86667,4.66667 0,6.53333c-0.93333,0.93333 -1.86667,1.4 -3.26667,1.4z" fill="#808285"></path><path d="M111.53333,177.33333c-1.4,0 -2.33333,-0.46667 -3.26667,-1.4l-60.66667,-60.66667c-1.86667,-1.86667 -1.86667,-4.66667 0,-6.53333c1.86667,-1.86667 4.66667,-1.86667 6.53333,0l60.66667,60.66667c1.86667,1.86667 1.86667,4.66667 0,6.53333c-0.93333,0.93333 -1.86667,1.4 -3.26667,1.4z" fill="#808285"></path><path d="M113.86667,156.33333c-1.4,0 -2.33333,-0.46667 -3.26667,-1.4l-45.73333,-45.73333c-1.86667,-1.86667 -1.86667,-4.66667 0,-6.53333c1.86667,-1.86667 4.66667,-1.86667 6.53333,0l45.73333,45.73333c1.86667,1.86667 1.86667,4.66667 0,6.53333c-0.93333,0.93333 -2.33333,1.4 -3.26667,1.4z" fill="#808285"></path><path d="M102.2,191.33333c-1.4,0 -2.33333,-0.46667 -3.26667,-1.4l-65.33333,-65.33333c-1.86667,-1.86667 -1.86667,-4.66667 0,-6.53333c1.86667,-1.86667 4.66667,-1.86667 6.53333,0l65.33333,65.33333c1.86667,1.86667 1.86667,4.66667 0,6.53333c-0.93333,0.93333 -1.86667,1.4 -3.26667,1.4z" fill="#808285"></path><path d="M111.53333,177.33333c-1.4,0 -2.33333,-0.46667 -3.26667,-1.4l-60.66667,-60.66667c-1.86667,-1.86667 -1.86667,-4.66667 0,-6.53333c1.86667,-1.86667 4.66667,-1.86667 6.53333,0l60.66667,60.66667c1.86667,1.86667 1.86667,4.66667 0,6.53333c-0.93333,0.93333 -1.86667,1.4 -3.26667,1.4z" fill="#808285"></path><path d="M113.86667,156.33333c-1.4,0 -2.33333,-0.46667 -3.26667,-1.4l-45.73333,-45.73333c-1.86667,-1.86667 -1.86667,-4.66667 0,-6.53333c1.86667,-1.86667 4.66667,-1.86667 6.53333,0l45.73333,45.73333c1.86667,1.86667 1.86667,4.66667 0,6.53333c-0.93333,0.93333 -2.33333,1.4 -3.26667,1.4z" fill="#808285"></path><path d="M108.73333,128.8c-1.4,0 -2.33333,-0.46667 -3.26667,-1.4l-20.53333,-20.53333c-1.86667,-1.86667 -1.86667,-4.66667 0,-6.53333c1.86667,-1.86667 4.66667,-1.86667 6.53333,0l20.53333,20.53333c1.86667,1.86667 1.86667,4.66667 0,6.53333c-0.93333,0.93333 -1.86667,1.4 -3.26667,1.4z" fill="#808285"></path><path d="M31.73333,132.53333l-13.06667,-12.13333c26.6,-27.06667 60.2,-24.26667 87.73333,-18.66667c2.8,0.46667 5.13333,0.93333 7.93333,1.86667c27.06667,6.06667 53.2,11.2 77.93333,-13.53333l13.06667,12.13333c-32.2,32.2 -66.73333,24.73333 -94.73333,18.66667c-2.33333,-0.46667 -5.13333,-0.93333 -7.46667,-1.4c-30.8,-6.53333 -51.8,-6.53333 -71.4,13.06667z" fill="#808285"></path><path d="M164.26667,106.86667c3.26667,-0.93333 6.53333,-1.86667 9.8,-3.26667l-59.26667,-59.26667c-1.86667,-1.86667 -4.66667,-1.86667 -6.53333,0c-1.86667,1.86667 -1.86667,4.66667 0,6.53333z" fill="#be202e"></path><path d="M180.13333,99.4c2.33333,-1.4 5.13333,-3.26667 7.46667,-5.6l-63.46667,-63.46667c-1.86667,-1.86667 -4.66667,-1.86667 -6.53333,0c-1.86667,1.86667 -1.86667,4.66667 0,6.53333z" fill="#be202e"></path><path d="M142.8,108.26667c4.2,0.46667 8.86667,0.46667 13.06667,0l-42.93333,-42.93333c-1.86667,-1.86667 -4.66667,-1.86667 -6.53333,0c-1.86667,1.86667 -1.86667,4.66667 0,6.53333z" fill="#be202e"></path><path d="M111.06667,92.86667c-1.86667,1.86667 -1.86667,4.66667 0,6.53333l4.2,4.2c5.6,1.4 11.2,2.33333 16.33333,3.26667l-14,-14c-1.4,-1.86667 -4.66667,-1.86667 -6.53333,0z" fill="#be202e"></path><path d="M102.2,205.33333l-12.13333,-13.06667c25.2,-25.2 19.6,-50.86667 13.53333,-77.93333c-0.46667,-2.8 -0.93333,-5.13333 -1.86667,-7.93333c-5.6,-28 -9.33333,-59.73333 18.66667,-87.73333l12.13333,13.06667c-19.6,19.6 -19.6,41.06667 -13.53333,70.93333c0.46667,2.33333 0.93333,5.13333 1.4,7.46667c6.53333,28.46667 12.6,67.2 -18.2,95.2z" fill="#be202e"></path></g></g></g></svg>
