<?xml version="1.0" encoding="UTF-8"?>
<svg width="217px" height="63px" viewBox="0 0 217 63" version="1.1" xmlns="http://www.w3.org/2000/svg" xmlns:xlink="http://www.w3.org/1999/xlink">
    <!-- Generator: Sketch 41.1 (35376) - http://www.bohemiancoding.com/sketch -->
    <title>Page 1</title>
    <desc>Created with Sketch.</desc>
    <defs></defs>
    <g id="Page-1" stroke="none" stroke-width="1" fill="none" fill-rule="evenodd">
        <g>
            <path d="M108.3145,3.2764 C108.3445,3.2694 108.3745,3.2604 108.4045,3.2544 C108.3745,3.2604 108.3445,3.2694 108.3145,3.2764 M106.6185,6.3094 C107.1625,6.1364 107.7165,5.9864 108.2755,5.8474 C107.7155,5.9854 107.1625,6.1374 106.6185,6.3094 M108.3785,5.8194 C109.5785,5.5264 110.8105,5.3224 112.0685,5.2024 C110.8105,5.3224 109.5805,5.5304 108.3785,5.8194 M106.6325,3.7004 C106.0375,3.8724 105.4495,4.0584 104.8695,4.2654 C105.4495,4.0584 106.0375,3.8704 106.6325,3.7004 M114.6115,0.5044 L114.6095,0.4994 C114.5945,0.4994 114.5825,0.5004 114.5685,0.5004 C114.5645,0.5004 114.5625,0.4994 114.5595,0.4994 C114.5555,0.4994 114.5515,0.5004 114.5465,0.5004 C111.1685,0.5064 107.9175,1.0614 104.8695,2.0674 C103.1345,2.6404 101.4705,3.3664 99.8855,4.2204 C94.9885,6.8604 90.8655,10.7604 87.9805,15.5014 C87.5505,16.2064 87.1565,16.9344 86.7835,17.6744 C86.3745,18.4864 86.0005,19.3184 85.6625,20.1684 C85.1675,21.4114 84.7455,22.6894 84.4125,24.0044 C83.7935,26.4514 83.4605,29.0104 83.4605,31.6464 C83.4605,34.2864 83.0375,36.8254 82.2615,39.2064 C80.6835,44.0594 77.6275,48.2474 73.6305,51.2494 C72.0985,52.3994 70.4285,53.3764 68.6485,54.1474 C66.4025,55.1184 63.9805,55.7534 61.4495,56.0104 C60.6285,56.0944 59.8005,56.1514 58.9575,56.1514 C58.1155,56.1514 57.2865,56.0944 56.4645,56.0104 C53.9335,55.7534 51.5125,55.1184 49.2675,54.1474 C47.4865,53.3764 45.8165,52.3994 44.2835,51.2494 C40.2875,48.2474 37.2305,44.0594 35.6525,39.2064 C35.3905,40.3254 35.0745,41.4224 34.7025,42.4974 C34.3355,43.5514 33.9195,44.5834 33.4545,45.5874 C33.1055,46.3394 32.7305,47.0734 32.3295,47.7944 C35.2235,52.5494 39.3645,56.4604 44.2835,59.1004 C45.8695,59.9504 47.5335,60.6724 49.2675,61.2434 C52.2645,62.2254 55.4595,62.7704 58.7775,62.7904 C58.8375,62.7944 58.8955,62.8074 58.9575,62.8074 C59.0195,62.8074 59.0775,62.7944 59.1375,62.7904 C62.4565,62.7704 65.6505,62.2254 68.6485,61.2434 C70.3815,60.6724 72.0455,59.9504 73.6305,59.1004 C78.5505,56.4604 82.6915,52.5494 85.5855,47.7944 C86.0145,47.0874 86.4105,46.3604 86.7835,45.6204 C87.1935,44.8074 87.5675,43.9734 87.9065,43.1224 C88.3995,41.8814 88.8205,40.6064 89.1525,39.2964 C89.7735,36.8464 90.1055,34.2864 90.1055,31.6464 C90.1055,29.0094 90.5295,26.4704 91.3045,24.0884 C92.8755,19.2554 95.9145,15.0844 99.8855,12.0864 C101.4185,10.9284 103.0875,9.9464 104.8695,9.1714 C106.6685,8.3874 109.3875,7.6204 112.0685,7.2944 C113.8385,7.0784 115.5935,7.0534 117.0515,7.3514 L117.0515,2.9914 C117.0515,1.6314 115.9625,0.5314 114.6115,0.5044" id="Fill-22" fill="#808285"></path>
            <path d="M91.3047,39.2061 C91.0417,40.3291 90.7247,41.4291 90.3517,42.5031 C89.9877,43.5541 89.5727,44.5811 89.1087,45.5811 C88.7587,46.3351 88.3827,47.0731 87.9807,47.7941 C93.4507,56.7801 103.3397,62.7961 114.6097,62.7961 L114.6097,56.1511 C103.7357,56.1511 94.4977,49.0281 91.3047,39.2061" id="Fill-23" fill="#1A1F46"></path>
            <path d="M34.4541,31.6465 C34.4541,29.0095 34.8781,26.4705 35.6521,24.0875 C38.8471,14.2655 48.0841,7.1435 58.9571,7.1435 C69.8311,7.1435 79.0681,14.2655 82.2621,24.0875 C82.5231,22.9685 82.8411,21.8715 83.2131,20.7975 C83.5781,19.7425 83.9941,18.7105 84.4611,17.7075 C84.8091,16.9565 85.1831,16.2195 85.5861,15.5005 C80.1151,6.5135 70.2251,0.4995 58.9571,0.4995 C47.6891,0.4995 37.7991,6.5135 32.3291,15.5005 C31.9001,16.2065 31.5061,16.9345 31.1321,17.6745 C30.7221,18.4875 30.3481,19.3215 30.0091,20.1725 C29.5161,21.4135 29.0941,22.6875 28.7621,24.0005 C28.1421,26.4475 27.8081,29.0085 27.8081,31.6465 C27.8081,34.2865 27.3851,36.8255 26.6111,39.2065 C23.4161,49.0285 14.1801,56.1515 3.3071,56.1515 L3.3071,62.7955 C14.5741,62.7955 24.4651,56.7805 29.9331,47.7935 C30.3631,47.0865 30.7581,46.3605 31.1321,45.6205 C31.5411,44.8075 31.9141,43.9775 32.2521,43.1255 C32.7481,41.8835 33.1701,40.6045 33.5021,39.2905 C34.1221,36.8445 34.4541,34.2845 34.4541,31.6465" id="Fill-24" fill="#1A1F46"></path>
            <path d="M3.3066,7.1436 C3.6056,7.1436 3.9016,7.1596 4.1976,7.1716 C4.5156,7.1866 4.8296,7.2056 5.1446,7.2316 C5.3826,7.2506 5.6216,7.2676 5.8596,7.2916 C8.3926,7.5556 10.8126,8.1986 13.0586,9.1766 C14.8396,9.9546 16.5096,10.9376 18.0406,12.0956 C22.0066,15.0936 25.0406,19.2616 26.6106,24.0876 C26.8726,22.9656 27.1906,21.8666 27.5636,20.7906 C27.9276,19.7406 28.3416,18.7136 28.8066,17.7136 C29.1566,16.9596 29.5316,16.2226 29.9336,15.5006 C27.0516,10.7646 22.9336,6.8676 18.0406,4.2276 C16.4556,3.3726 14.7926,2.6456 13.0586,2.0716 C10.0096,1.0636 6.7586,0.5096 3.3796,0.5006 C3.3746,0.5006 3.3706,0.4996 3.3676,0.4996 C3.3656,0.4996 3.3636,0.5006 3.3616,0.5006 C3.3426,0.5006 3.3246,0.4986 3.3066,0.4986 L3.3066,0.5056 C1.9586,0.5396 0.8746,1.6366 0.8746,2.9926 L0.8746,7.1896 C1.3906,7.1016 2.3506,7.1016 3.3066,7.1336 L3.3066,7.1436 Z" id="Fill-25" fill="#808285"></path>
            <path d="M58.957,16.0156 C57.581,16.0156 56.465,17.1316 56.465,18.5076 L56.465,56.0106 C57.286,56.0946 58.115,56.1516 58.957,56.1516 C59.801,56.1516 60.629,56.0946 61.449,56.0106 L61.449,18.5076 C61.449,17.1316 60.334,16.0156 58.957,16.0156" id="Fill-26" fill="#BE1F2E"></path>
            <path d="M46.7754,25.0791 C45.3984,25.0791 44.2834,26.1941 44.2834,27.5701 L44.2834,51.2491 C45.8164,52.3991 47.4864,53.3761 49.2674,54.1471 L49.2674,27.5701 C49.2674,26.1941 48.1514,25.0791 46.7754,25.0791" id="Fill-27" fill="#BE1F2E"></path>
            <path d="M71.1396,24.917 C69.7636,24.917 68.6486,26.032 68.6486,27.408 L68.6486,54.147 C70.4286,53.376 72.0986,52.399 73.6306,51.249 L73.6306,27.408 C73.6306,26.032 72.5156,24.917 71.1396,24.917" id="Fill-28" fill="#BE1F2E"></path>
            <path d="M4.1973,7.1719 C3.9013,7.1589 3.6053,7.1439 3.3063,7.1439 L3.3063,7.1339 C2.3503,7.1019 1.3903,7.1019 0.8753,7.1899 L0.8753,44.7999 C0.8753,46.1769 1.9913,47.2919 3.3673,47.2919 C4.7443,47.2919 5.8593,46.1769 5.8593,44.7999 L5.8593,7.2919 C5.6223,7.2679 5.3833,7.2509 5.1443,7.2319 C4.8653,7.2119 4.5433,7.1909 4.1973,7.1719" id="Fill-29" fill="#BE1F2E"></path>
            <path d="M13.0586,36.4365 C13.0586,37.8135 14.1736,38.9285 15.5496,38.9285 C16.9256,38.9285 18.0406,37.8135 18.0406,36.4365 L18.0406,12.0955 C16.5096,10.9375 14.8396,9.9545 13.0586,9.1765 L13.0586,36.4365 Z" id="Fill-30" fill="#BE1F2E"></path>
            <path d="M112.0684,38.3896 L112.0684,44.7996 C112.0684,46.1746 113.1834,47.2916 114.5594,47.2916 C115.9354,47.2916 117.0514,46.1746 117.0514,44.7996 L117.0514,43.1766 L115.2414,46.0946 L112.0684,38.3896 Z" id="Fill-31" fill="#BE1F2E"></path>
            <path d="M117.0518,31.7969 L117.0518,7.3519 C115.5938,7.0539 113.8388,7.0779 112.0688,7.2939 L112.0688,22.6329 L116.3238,32.9699 L117.0518,31.7969 Z" id="Fill-32" fill="#BE1F2E"></path>
            <path d="M104.8691,9.1709 C103.0881,9.9459 101.4181,10.9289 99.8861,12.0859 L99.8861,21.4039 L104.8691,13.3879 L104.8691,9.1709 Z" id="Fill-33" fill="#BE1F2E"></path>
            <path d="M99.8857,36.542 C99.8857,37.917 101.0017,39.032 102.3767,39.032 C103.7537,39.032 104.8687,37.917 104.8687,36.542 L104.8687,24.752 L99.8857,32.771 L99.8857,36.542 Z" id="Fill-34" fill="#BE1F2E"></path>
            <path d="M124.25,31.5752 L124.25,49.5502 C124.25,50.9252 125.365,52.0422 126.742,52.0422 C128.118,52.0422 129.234,50.9252 129.234,49.5502 L129.234,25.7092 L128.538,24.6652 L124.25,31.5752 Z" id="Fill-35" fill="#BE1F2E"></path>
            <path d="M129.2344,14.8906 L129.2344,13.7446 C129.2344,12.3686 128.1184,11.2526 126.7424,11.2526 C125.3654,11.2526 124.2504,12.3686 124.2504,13.7446 L124.2504,20.1976 L128.3584,13.5776 L129.2344,14.8906 Z" id="Fill-36" fill="#BE1F2E"></path>
            <path d="M141.416,20.707 C141.416,19.331 140.301,18.216 138.924,18.216 C137.548,18.216 136.432,19.331 136.432,20.707 L136.432,25.686 L141.416,33.163 L141.416,20.707 Z" id="Fill-37" fill="#BE1F2E"></path>
            <path d="M136.4316,42.5869 C136.4316,43.9619 137.5476,45.0789 138.9236,45.0789 C139.9266,45.0789 140.7856,44.4829 141.1806,43.6299 L136.4316,36.5049 L136.4316,42.5869 Z" id="Fill-38" fill="#BE1F2E"></path>
            <path d="M151.1064,5.6133 C149.7304,5.6133 148.6154,6.7283 148.6154,8.1053 L148.6154,20.8423 L153.2274,6.8143 C152.7914,6.0963 152.0074,5.6133 151.1064,5.6133" id="Fill-39" fill="#BE1F2E"></path>
            <path d="M148.6152,55.1904 C148.6152,56.5654 149.7302,57.6804 151.1062,57.6804 C152.4822,57.6804 153.5972,56.5654 153.5972,55.1904 L153.5972,24.8994 L148.6152,40.0514 L148.6152,55.1904 Z" id="Fill-40" fill="#BE1F2E"></path>
            <path d="M190.1445,27.4658 L190.1445,16.5808 C190.1445,15.2038 189.0295,14.0888 187.6535,14.0888 C186.2775,14.0888 185.1625,15.2038 185.1625,16.5808 L185.1625,32.8918 L185.8555,34.9088 L190.1445,27.4658 Z" id="Fill-41" fill="#BE1F2E"></path>
            <path d="M187.6533,49.2061 C189.0293,49.2061 190.1443,48.0891 190.1443,46.7141 L190.1443,39.4851 L185.3883,47.7391 C185.7793,48.6021 186.6443,49.2061 187.6533,49.2061" id="Fill-42" fill="#BE1F2E"></path>
            <path d="M202.3271,18.9492 C202.3271,17.5732 201.2111,16.4572 199.8361,16.4572 C198.4591,16.4572 197.3441,17.5732 197.3441,18.9492 L197.3441,25.5372 L202.3271,25.5372 L202.3271,18.9492 Z" id="Fill-43" fill="#BE1F2E"></path>
            <path d="M197.3437,44.3447 C197.3437,45.7217 198.4587,46.8367 199.8357,46.8367 C201.2107,46.8367 202.3267,45.7217 202.3267,44.3447 L202.3267,31.5367 L197.3437,31.5367 L197.3437,44.3447 Z" id="Fill-44" fill="#BE1F2E"></path>
            <polygon id="Fill-45" fill="#1A1F46" points="168.7295 62.1318 156.0375 12.6778 144.9105 46.5188 128.4935 21.8928 115.5115 42.8138 106.0925 19.9418 98.7895 31.6928 94.0525 31.7868 94.0115 28.7868 97.1075 28.7148 106.6375 13.3838 116.0525 36.2508 128.4035 16.3488 143.9865 39.7238 156.5275 1.5818 168.5005 47.9558 176.5635 12.4808 185.5085 38.5148 192.1235 27.0368 214.6155 27.0368 214.6155 30.0368 193.8575 30.0368 184.8155 45.7278 177.3335 23.9508"></polygon>
            <path d="M177.9941,12.0269 L177.9941,7.6199 C177.9941,6.2429 176.8791,5.1279 175.5031,5.1279 C174.1271,5.1279 173.0121,6.2429 173.0121,7.6199 L173.0121,22.6269 L176.1871,8.3279 C176.1441,8.3209 177.9941,12.0269 177.9941,12.0269" id="Fill-46" fill="#BE1F2E"></path>
            <path d="M165.7812,3.2402 C165.7812,1.8642 164.6652,0.7482 163.2892,0.7482 C161.9122,0.7482 160.7972,1.8642 160.7972,3.2402 L160.7972,12.1182 L165.7812,31.4222 L165.7812,3.2402 Z" id="Fill-47" fill="#BE1F2E"></path>
            <path d="M160.7969,60.167 C160.7969,61.543 161.9129,62.659 163.2889,62.659 C164.6659,62.659 165.7809,61.543 165.7809,60.167 L165.7809,56.679 L160.7969,37.258 L160.7969,60.167 Z" id="Fill-48" fill="#BE1F2E"></path>
            <path d="M173.2295,48.9849 L173.0425,49.9209 C173.2925,51.0319 174.2835,51.8659 175.4705,51.8659 C176.8475,51.8659 177.9625,50.7489 177.9625,49.3739 L177.9625,30.3999 L177.6335,29.4419 L173.2295,48.9849 Z" id="Fill-49" fill="#BE1F2E"></path>
            <path d="M95.5645,30.3398 C95.5645,31.1968 94.8695,31.8918 94.0125,31.8918 C93.1555,31.8918 92.4605,31.1968 92.4605,30.3398 C92.4605,29.4828 93.1555,28.7868 94.0125,28.7868 C94.8695,28.7868 95.5645,29.4828 95.5645,30.3398" id="Fill-50" fill="#1A1F46"></path>
            <path d="M216.125,28.5371 C216.125,29.3721 215.449,30.0481 214.615,30.0481 C213.78,30.0481 213.104,29.3721 213.104,28.5371 C213.104,27.7031 213.78,27.0261 214.615,27.0261 C215.449,27.0261 216.125,27.7031 216.125,28.5371" id="Fill-51" fill="#1A1F46"></path>
        </g>
    </g>
</svg>