<?xml version="1.0" encoding="UTF-8"?>
<svg width="417px" height="141px" viewBox="0 0 417 141" version="1.1" xmlns="http://www.w3.org/2000/svg" xmlns:xlink="http://www.w3.org/1999/xlink">
    <!-- Generator: Sketch 41.1 (35376) - http://www.bohemiancoding.com/sketch -->
    <title>Page 1</title>
    <desc>Created with Sketch.</desc>
    <defs></defs>
    <g id="Page-1" stroke="none" stroke-width="1" fill="none" fill-rule="evenodd">
        <g>
            <path d="M5.7168,127.9678 L12.7328,127.9678 C18.2798,127.9678 22.5208,123.8488 22.5208,118.0568 C22.5208,112.2238 18.1568,108.0638 12.5288,108.0638 L5.7168,108.0638 L5.7168,127.9678 Z M12.6098,103.7398 C21.1748,103.7398 27.3748,109.7368 27.3748,118.0158 C27.3748,126.2548 21.1338,132.2908 12.4878,132.2908 L0.9048,132.2908 L0.9048,103.7398 L12.6098,103.7398 Z" id="Fill-1" fill="#BE1F2E"></path>
            <polygon id="Fill-3" fill="#BE1F2E" points="52.5391 132.291 37.3251 111.816 37.3251 132.291 32.5131 132.291 32.5131 103.74 37.2441 103.74 52.5391 124.256 52.5391 103.74 57.2691 103.74 57.2691 132.291"></polygon>
            <path d="M76.0303,108.8799 L70.6463,121.5649 L81.4143,121.5649 L76.0303,108.8799 Z M68.8513,125.8469 L66.1193,132.2909 L61.1023,132.2909 L73.7063,103.7399 L78.6403,103.7399 L91.1223,132.2909 L85.9823,132.2909 L83.2503,125.8469 L68.8513,125.8469 Z" id="Fill-4" fill="#BE1F2E"></path>
            <polygon id="Fill-5" fill="#1A1F46" points="98.625 132.291 90.224 110.593 95.117 110.593 101.154 127.682 107.108 110.593 111.8 110.593 103.479 132.291"></polygon>
            <path d="M115.062,110.593 L119.711,110.593 L119.711,132.291 L115.062,132.291 L115.062,110.593 Z M120.119,104.393 C120.119,106.024 118.937,107.207 117.386,107.207 C115.836,107.207 114.653,106.024 114.653,104.393 C114.653,102.721 115.836,101.538 117.386,101.538 C118.937,101.538 120.119,102.721 120.119,104.393 L120.119,104.393 Z" id="Fill-6" fill="#1A1F46"></path>
            <path d="M140.7158,112.5908 L139.0028,116.0578 C137.0858,114.8748 134.6798,114.1408 132.7628,114.1408 C130.9268,114.1408 129.5808,114.7528 129.5808,116.3028 C129.5808,120.2998 141.1238,118.1378 141.0828,126.0098 C141.0828,130.4558 137.1268,132.4538 132.7628,132.4538 C129.5808,132.4538 126.1948,131.3938 124.0338,129.4358 L125.7058,126.0918 C127.5818,127.7638 130.6008,128.7828 132.9668,128.7828 C134.9648,128.7828 136.5148,128.0898 136.5148,126.4588 C136.5148,122.0128 125.0948,124.5008 125.1358,116.6698 C125.1358,112.2648 128.9688,110.3888 133.1298,110.3888 C135.8618,110.3888 138.7578,111.2038 140.7158,112.5908" id="Fill-7" fill="#1A1F46"></path>
            <path d="M165.5127,132.291 L160.8227,132.291 L160.8227,128.049 C159.3547,131.067 156.6207,132.413 153.0737,132.454 C148.0967,132.454 145.1187,129.272 145.1187,124.093 L145.1187,110.593 L149.8097,110.593 L149.8097,122.788 C149.8097,126.051 151.7267,128.049 154.8667,128.049 C158.6197,127.968 160.8227,125.071 160.8227,121.278 L160.8227,110.593 L165.5127,110.593 L165.5127,132.291 Z" id="Fill-8" fill="#1A1F46"></path>
            <path d="M185.416,124.6641 L185.416,122.6651 L179.543,122.6651 C176.483,122.6651 175.056,123.4811 175.056,125.5611 C175.056,127.5181 176.646,128.7831 179.257,128.7831 C182.602,128.7831 185.171,127.0291 185.416,124.6641 L185.416,124.6641 Z M185.457,129.6401 C183.906,131.5571 181.419,132.4951 178.278,132.4951 C173.588,132.4951 170.651,129.5991 170.651,125.7651 C170.651,121.8091 173.629,119.2801 178.85,119.2391 L185.416,119.2391 L185.416,118.5871 C185.416,115.8531 183.662,114.2231 180.236,114.2231 C178.156,114.2231 175.994,114.9571 173.832,116.4251 L171.915,113.1621 C174.934,111.3671 177.136,110.4301 181.256,110.4301 C186.844,110.4301 189.984,113.2841 190.024,118.0571 L190.065,132.2911 L185.457,132.2911 L185.457,129.6401 Z" id="Fill-9" fill="#1A1F46"></path>
            <polygon id="Fill-10" fill="#1A1F46" points="196.55 102.027 201.24 102.027 201.24 132.291 196.55 132.291"></polygon>
            <path d="M208.377,110.593 L213.027,110.593 L213.027,132.291 L208.377,132.291 L208.377,110.593 Z M213.435,104.393 C213.435,106.024 212.252,107.207 210.702,107.207 C209.152,107.207 207.97,106.024 207.97,104.393 C207.97,102.721 209.152,101.538 210.702,101.538 C212.252,101.538 213.435,102.721 213.435,104.393 L213.435,104.393 Z" id="Fill-11" fill="#1A1F46"></path>
            <polygon id="Fill-12" fill="#1A1F46" points="224.1201 128.457 236.8871 128.498 236.8871 132.332 218.3291 132.291 218.3291 129.109 230.7271 114.427 218.6961 114.427 218.6961 110.593 236.5191 110.633 236.5191 113.773"></polygon>
            <path d="M254.4238,124.6641 L254.4238,122.6651 L248.5508,122.6651 C245.4918,122.6651 244.0648,123.4811 244.0648,125.5611 C244.0648,127.5181 245.6548,128.7831 248.2658,128.7831 C251.6098,128.7831 254.1798,127.0291 254.4238,124.6641 L254.4238,124.6641 Z M254.4648,129.6401 C252.9148,131.5571 250.4268,132.4951 247.2858,132.4951 C242.5958,132.4951 239.6588,129.5991 239.6588,125.7651 C239.6588,121.8091 242.6368,119.2801 247.8578,119.2391 L254.4238,119.2391 L254.4238,118.5871 C254.4238,115.8531 252.6698,114.2231 249.2438,114.2231 C247.1638,114.2231 245.0018,114.9571 242.8408,116.4251 L240.9238,113.1621 C243.9428,111.3671 246.1448,110.4301 250.2638,110.4301 C255.8518,110.4301 258.9918,113.2841 259.0328,118.0571 L259.0738,132.2911 L254.4648,132.2911 L254.4648,129.6401 Z" id="Fill-13" fill="#1A1F46"></path>
            <path d="M277.6309,130.9043 C275.9179,131.9243 274.1229,132.4953 272.2869,132.4953 C269.0249,132.4953 266.2099,130.6193 266.2099,126.1733 L266.2099,114.9163 L263.1519,114.9163 L263.1519,111.4083 L266.2099,111.4083 L266.2099,105.4533 L270.8599,105.4533 L270.8599,111.4083 L277.2639,111.4083 L277.2639,114.9163 L270.8599,114.9163 L270.8599,125.3163 C270.8599,127.5593 271.7169,128.2533 273.1849,128.2533 C274.1639,128.2533 275.1839,127.9263 276.4479,127.3153 L277.6309,130.9043 Z" id="Fill-14" fill="#1A1F46"></path>
            <path d="M281.953,110.593 L286.603,110.593 L286.603,132.291 L281.953,132.291 L281.953,110.593 Z M287.011,104.393 C287.011,106.024 285.828,107.207 284.278,107.207 C282.729,107.207 281.546,106.024 281.546,104.393 C281.546,102.721 282.729,101.538 284.278,101.538 C285.828,101.538 287.011,102.721 287.011,104.393 L287.011,104.393 Z" id="Fill-15" fill="#1A1F46"></path>
            <path d="M296.1875,121.4824 C296.1875,125.6834 298.9195,128.5394 302.8355,128.5394 C306.7105,128.5394 309.4435,125.6834 309.4435,121.4824 C309.4435,117.3224 306.7105,114.4664 302.8355,114.4664 C298.9195,114.4664 296.1875,117.3224 296.1875,121.4824 M314.1335,121.4414 C314.1335,127.9674 309.5245,132.4544 302.8355,132.4544 C296.1065,132.4544 291.4975,127.9674 291.4975,121.4414 C291.4975,114.8754 296.1065,110.4294 302.8355,110.4294 C309.5245,110.4294 314.1335,114.8754 314.1335,121.4414" id="Fill-16" fill="#1A1F46"></path>
            <path d="M339.7881,118.791 L339.7881,132.291 L335.0971,132.291 L335.0971,120.096 C335.0971,116.833 333.1401,114.834 329.8761,114.834 C326.2871,114.875 324.0441,117.363 323.7181,120.748 L323.7181,132.291 L319.0271,132.291 L319.0271,110.593 L323.7181,110.593 L323.7181,114.753 C325.2671,111.734 328.0411,110.43 331.7121,110.43 C336.7691,110.43 339.7881,113.61 339.7881,118.791" id="Fill-17" fill="#1A1F46"></path>
            <path d="M349.6162,129.9258 C349.6162,131.5158 348.5142,132.6578 347.0472,132.6578 C345.5782,132.6578 344.4762,131.5158 344.4762,129.9258 C344.4762,128.3758 345.5782,127.2748 347.0472,127.2748 C348.5142,127.2748 349.6162,128.3758 349.6162,129.9258" id="Fill-18" fill="#808285"></path>
            <path d="M357.6094,121.4824 C357.6094,125.6834 360.3414,128.5394 364.2574,128.5394 C368.1324,128.5394 370.8654,125.6834 370.8654,121.4824 C370.8654,117.3224 368.1324,114.4664 364.2574,114.4664 C360.3414,114.4664 357.6094,117.3224 357.6094,121.4824 M375.5554,121.4414 C375.5554,127.9674 370.9464,132.4544 364.2574,132.4544 C357.5284,132.4544 352.9194,127.9674 352.9194,121.4414 C352.9194,114.8754 357.5284,110.4294 364.2574,110.4294 C370.9464,110.4294 375.5554,114.8754 375.5554,121.4414" id="Fill-19" fill="#808285"></path>
            <path d="M385.1396,114.916 C386.6076,111.979 389.2176,110.43 392.6446,110.43 L392.6446,114.916 C388.2806,114.671 385.5066,117.24 385.1396,120.952 L385.1396,132.291 L380.4496,132.291 L380.4496,110.593 L385.1396,110.593 L385.1396,114.916 Z" id="Fill-20" fill="#808285"></path>
            <path d="M411.4463,120.8711 C411.4463,116.9551 408.8773,114.2231 405.2063,114.2231 C401.4943,114.2231 398.9253,116.9961 398.8833,120.8711 C398.9253,124.7861 401.4533,127.5591 405.2063,127.5591 C408.8773,127.5591 411.4463,124.7861 411.4463,120.8711 L411.4463,120.8711 Z M416.0953,130.1701 C416.0953,136.4101 411.6503,140.3261 404.8393,140.3261 C401.4533,140.3261 398.4763,139.2661 395.8253,137.4711 L397.8233,134.0861 C399.8633,135.5951 401.9833,136.4511 404.6343,136.4511 C408.7553,136.4511 411.4463,134.0451 411.4463,130.2921 L411.4463,127.5591 C409.9773,129.9261 407.5313,131.2301 404.2673,131.2301 C398.3943,131.2301 394.4793,126.9881 394.4793,120.7481 C394.4793,114.6301 398.3533,110.4701 404.1043,110.4301 C407.4493,110.3891 409.9373,111.7341 411.4463,114.1001 L411.4463,110.5931 L416.0953,110.5931 L416.0953,130.1701 Z" id="Fill-21" fill="#808285"></path>
            <path d="M208.3145,3.2764 C208.3445,3.2694 208.3745,3.2604 208.4045,3.2544 C208.3745,3.2604 208.3445,3.2694 208.3145,3.2764 M206.6185,6.3094 C207.1625,6.1364 207.7165,5.9864 208.2755,5.8474 C207.7155,5.9854 207.1625,6.1374 206.6185,6.3094 M208.3785,5.8194 C209.5785,5.5264 210.8105,5.3224 212.0685,5.2024 C210.8105,5.3224 209.5805,5.5304 208.3785,5.8194 M206.6325,3.7004 C206.0375,3.8724 205.4495,4.0584 204.8695,4.2654 C205.4495,4.0584 206.0375,3.8704 206.6325,3.7004 M214.6115,0.5044 L214.6095,0.4994 C214.5945,0.4994 214.5825,0.5004 214.5685,0.5004 C214.5645,0.5004 214.5625,0.4994 214.5595,0.4994 C214.5555,0.4994 214.5515,0.5004 214.5465,0.5004 C211.1685,0.5064 207.9175,1.0614 204.8695,2.0674 C203.1345,2.6404 201.4705,3.3664 199.8855,4.2204 C194.9885,6.8604 190.8655,10.7604 187.9805,15.5014 C187.5505,16.2064 187.1565,16.9344 186.7835,17.6744 C186.3745,18.4864 186.0005,19.3184 185.6625,20.1684 C185.1675,21.4114 184.7455,22.6894 184.4125,24.0044 C183.7935,26.4514 183.4605,29.0104 183.4605,31.6464 C183.4605,34.2864 183.0375,36.8254 182.2615,39.2064 C180.6835,44.0594 177.6275,48.2474 173.6305,51.2494 C172.0985,52.3994 170.4285,53.3764 168.6485,54.1474 C166.4025,55.1184 163.9805,55.7534 161.4495,56.0104 C160.6285,56.0944 159.8005,56.1514 158.9575,56.1514 C158.1155,56.1514 157.2865,56.0944 156.4645,56.0104 C153.9335,55.7534 151.5125,55.1184 149.2675,54.1474 C147.4865,53.3764 145.8165,52.3994 144.2835,51.2494 C140.2875,48.2474 137.2305,44.0594 135.6525,39.2064 C135.3905,40.3254 135.0745,41.4224 134.7025,42.4974 C134.3355,43.5514 133.9195,44.5834 133.4545,45.5874 C133.1055,46.3394 132.7305,47.0734 132.3295,47.7944 C135.2235,52.5494 139.3645,56.4604 144.2835,59.1004 C145.8695,59.9504 147.5335,60.6724 149.2675,61.2434 C152.2645,62.2254 155.4595,62.7704 158.7775,62.7904 C158.8375,62.7944 158.8955,62.8074 158.9575,62.8074 C159.0195,62.8074 159.0775,62.7944 159.1375,62.7904 C162.4565,62.7704 165.6505,62.2254 168.6485,61.2434 C170.3815,60.6724 172.0455,59.9504 173.6305,59.1004 C178.5505,56.4604 182.6915,52.5494 185.5855,47.7944 C186.0145,47.0874 186.4105,46.3604 186.7835,45.6204 C187.1935,44.8074 187.5675,43.9734 187.9065,43.1224 C188.3995,41.8814 188.8205,40.6064 189.1525,39.2964 C189.7735,36.8464 190.1055,34.2864 190.1055,31.6464 C190.1055,29.0094 190.5295,26.4704 191.3045,24.0884 C192.8755,19.2554 195.9145,15.0844 199.8855,12.0864 C201.4185,10.9284 203.0875,9.9464 204.8695,9.1714 C206.6685,8.3874 209.3875,7.6204 212.0685,7.2944 C213.8385,7.0784 215.5935,7.0534 217.0515,7.3514 L217.0515,2.9914 C217.0515,1.6314 215.9625,0.5314 214.6115,0.5044" id="Fill-22" fill="#808285"></path>
            <path d="M191.3047,39.2061 C191.0417,40.3291 190.7247,41.4291 190.3517,42.5031 C189.9877,43.5541 189.5727,44.5811 189.1087,45.5811 C188.7587,46.3351 188.3827,47.0731 187.9807,47.7941 C193.4507,56.7801 203.3397,62.7961 214.6097,62.7961 L214.6097,56.1511 C203.7357,56.1511 194.4977,49.0281 191.3047,39.2061" id="Fill-23" fill="#1A1F46"></path>
            <path d="M134.4541,31.6465 C134.4541,29.0095 134.8781,26.4705 135.6521,24.0875 C138.8471,14.2655 148.0841,7.1435 158.9571,7.1435 C169.8311,7.1435 179.0681,14.2655 182.2621,24.0875 C182.5231,22.9685 182.8411,21.8715 183.2131,20.7975 C183.5781,19.7425 183.9941,18.7105 184.4611,17.7075 C184.8091,16.9565 185.1831,16.2195 185.5861,15.5005 C180.1151,6.5135 170.2251,0.4995 158.9571,0.4995 C147.6891,0.4995 137.7991,6.5135 132.3291,15.5005 C131.9001,16.2065 131.5061,16.9345 131.1321,17.6745 C130.7221,18.4875 130.3481,19.3215 130.0091,20.1725 C129.5161,21.4135 129.0941,22.6875 128.7621,24.0005 C128.1421,26.4475 127.8081,29.0085 127.8081,31.6465 C127.8081,34.2865 127.3851,36.8255 126.6111,39.2065 C123.4161,49.0285 114.1801,56.1515 103.3071,56.1515 L103.3071,62.7955 C114.5741,62.7955 124.4651,56.7805 129.9331,47.7935 C130.3631,47.0865 130.7581,46.3605 131.1321,45.6205 C131.5411,44.8075 131.9141,43.9775 132.2521,43.1255 C132.7481,41.8835 133.1701,40.6045 133.5021,39.2905 C134.1221,36.8445 134.4541,34.2845 134.4541,31.6465" id="Fill-24" fill="#1A1F46"></path>
            <path d="M103.3066,7.1436 C103.6056,7.1436 103.9016,7.1596 104.1976,7.1716 C104.5156,7.1866 104.8296,7.2056 105.1446,7.2316 C105.3826,7.2506 105.6216,7.2676 105.8596,7.2916 C108.3926,7.5556 110.8126,8.1986 113.0586,9.1766 C114.8396,9.9546 116.5096,10.9376 118.0406,12.0956 C122.0066,15.0936 125.0406,19.2616 126.6106,24.0876 C126.8726,22.9656 127.1906,21.8666 127.5636,20.7906 C127.9276,19.7406 128.3416,18.7136 128.8066,17.7136 C129.1566,16.9596 129.5316,16.2226 129.9336,15.5006 C127.0516,10.7646 122.9336,6.8676 118.0406,4.2276 C116.4556,3.3726 114.7926,2.6456 113.0586,2.0716 C110.0096,1.0636 106.7586,0.5096 103.3796,0.5006 C103.3746,0.5006 103.3706,0.4996 103.3676,0.4996 C103.3656,0.4996 103.3636,0.5006 103.3616,0.5006 C103.3426,0.5006 103.3246,0.4986 103.3066,0.4986 L103.3066,0.5056 C101.9586,0.5396 100.8746,1.6366 100.8746,2.9926 L100.8746,7.1896 C101.3906,7.1016 102.3506,7.1016 103.3066,7.1336 L103.3066,7.1436 Z" id="Fill-25" fill="#808285"></path>
            <path d="M158.957,16.0156 C157.581,16.0156 156.465,17.1316 156.465,18.5076 L156.465,56.0106 C157.286,56.0946 158.115,56.1516 158.957,56.1516 C159.801,56.1516 160.629,56.0946 161.449,56.0106 L161.449,18.5076 C161.449,17.1316 160.334,16.0156 158.957,16.0156" id="Fill-26" fill="#BE1F2E"></path>
            <path d="M146.7754,25.0791 C145.3984,25.0791 144.2834,26.1941 144.2834,27.5701 L144.2834,51.2491 C145.8164,52.3991 147.4864,53.3761 149.2674,54.1471 L149.2674,27.5701 C149.2674,26.1941 148.1514,25.0791 146.7754,25.0791" id="Fill-27" fill="#BE1F2E"></path>
            <path d="M171.1396,24.917 C169.7636,24.917 168.6486,26.032 168.6486,27.408 L168.6486,54.147 C170.4286,53.376 172.0986,52.399 173.6306,51.249 L173.6306,27.408 C173.6306,26.032 172.5156,24.917 171.1396,24.917" id="Fill-28" fill="#BE1F2E"></path>
            <path d="M104.1973,7.1719 C103.9013,7.1589 103.6053,7.1439 103.3063,7.1439 L103.3063,7.1339 C102.3503,7.1019 101.3903,7.1019 100.8753,7.1899 L100.8753,44.7999 C100.8753,46.1769 101.9913,47.2919 103.3673,47.2919 C104.7443,47.2919 105.8593,46.1769 105.8593,44.7999 L105.8593,7.2919 C105.6223,7.2679 105.3833,7.2509 105.1443,7.2319 C104.8653,7.2119 104.5433,7.1909 104.1973,7.1719" id="Fill-29" fill="#BE1F2E"></path>
            <path d="M113.0586,36.4365 C113.0586,37.8135 114.1736,38.9285 115.5496,38.9285 C116.9256,38.9285 118.0406,37.8135 118.0406,36.4365 L118.0406,12.0955 C116.5096,10.9375 114.8396,9.9545 113.0586,9.1765 L113.0586,36.4365 Z" id="Fill-30" fill="#BE1F2E"></path>
            <path d="M212.0684,38.3896 L212.0684,44.7996 C212.0684,46.1746 213.1834,47.2916 214.5594,47.2916 C215.9354,47.2916 217.0514,46.1746 217.0514,44.7996 L217.0514,43.1766 L215.2414,46.0946 L212.0684,38.3896 Z" id="Fill-31" fill="#BE1F2E"></path>
            <path d="M217.0518,31.7969 L217.0518,7.3519 C215.5938,7.0539 213.8388,7.0779 212.0688,7.2939 L212.0688,22.6329 L216.3238,32.9699 L217.0518,31.7969 Z" id="Fill-32" fill="#BE1F2E"></path>
            <path d="M204.8691,9.1709 C203.0881,9.9459 201.4181,10.9289 199.8861,12.0859 L199.8861,21.4039 L204.8691,13.3879 L204.8691,9.1709 Z" id="Fill-33" fill="#BE1F2E"></path>
            <path d="M199.8857,36.542 C199.8857,37.917 201.0017,39.032 202.3767,39.032 C203.7537,39.032 204.8687,37.917 204.8687,36.542 L204.8687,24.752 L199.8857,32.771 L199.8857,36.542 Z" id="Fill-34" fill="#BE1F2E"></path>
            <path d="M224.25,31.5752 L224.25,49.5502 C224.25,50.9252 225.365,52.0422 226.742,52.0422 C228.118,52.0422 229.234,50.9252 229.234,49.5502 L229.234,25.7092 L228.538,24.6652 L224.25,31.5752 Z" id="Fill-35" fill="#BE1F2E"></path>
            <path d="M229.2344,14.8906 L229.2344,13.7446 C229.2344,12.3686 228.1184,11.2526 226.7424,11.2526 C225.3654,11.2526 224.2504,12.3686 224.2504,13.7446 L224.2504,20.1976 L228.3584,13.5776 L229.2344,14.8906 Z" id="Fill-36" fill="#BE1F2E"></path>
            <path d="M241.416,20.707 C241.416,19.331 240.301,18.216 238.924,18.216 C237.548,18.216 236.432,19.331 236.432,20.707 L236.432,25.686 L241.416,33.163 L241.416,20.707 Z" id="Fill-37" fill="#BE1F2E"></path>
            <path d="M236.4316,42.5869 C236.4316,43.9619 237.5476,45.0789 238.9236,45.0789 C239.9266,45.0789 240.7856,44.4829 241.1806,43.6299 L236.4316,36.5049 L236.4316,42.5869 Z" id="Fill-38" fill="#BE1F2E"></path>
            <path d="M251.1064,5.6133 C249.7304,5.6133 248.6154,6.7283 248.6154,8.1053 L248.6154,20.8423 L253.2274,6.8143 C252.7914,6.0963 252.0074,5.6133 251.1064,5.6133" id="Fill-39" fill="#BE1F2E"></path>
            <path d="M248.6152,55.1904 C248.6152,56.5654 249.7302,57.6804 251.1062,57.6804 C252.4822,57.6804 253.5972,56.5654 253.5972,55.1904 L253.5972,24.8994 L248.6152,40.0514 L248.6152,55.1904 Z" id="Fill-40" fill="#BE1F2E"></path>
            <path d="M290.1445,27.4658 L290.1445,16.5808 C290.1445,15.2038 289.0295,14.0888 287.6535,14.0888 C286.2775,14.0888 285.1625,15.2038 285.1625,16.5808 L285.1625,32.8918 L285.8555,34.9088 L290.1445,27.4658 Z" id="Fill-41" fill="#BE1F2E"></path>
            <path d="M287.6533,49.2061 C289.0293,49.2061 290.1443,48.0891 290.1443,46.7141 L290.1443,39.4851 L285.3883,47.7391 C285.7793,48.6021 286.6443,49.2061 287.6533,49.2061" id="Fill-42" fill="#BE1F2E"></path>
            <path d="M302.3271,18.9492 C302.3271,17.5732 301.2111,16.4572 299.8361,16.4572 C298.4591,16.4572 297.3441,17.5732 297.3441,18.9492 L297.3441,25.5372 L302.3271,25.5372 L302.3271,18.9492 Z" id="Fill-43" fill="#BE1F2E"></path>
            <path d="M297.3437,44.3447 C297.3437,45.7217 298.4587,46.8367 299.8357,46.8367 C301.2107,46.8367 302.3267,45.7217 302.3267,44.3447 L302.3267,31.5367 L297.3437,31.5367 L297.3437,44.3447 Z" id="Fill-44" fill="#BE1F2E"></path>
            <polygon id="Fill-45" fill="#1A1F46" points="268.7295 62.1318 256.0375 12.6778 244.9105 46.5188 228.4935 21.8928 215.5115 42.8138 206.0925 19.9418 198.7895 31.6928 194.0525 31.7868 194.0115 28.7868 197.1075 28.7148 206.6375 13.3838 216.0525 36.2508 228.4035 16.3488 243.9865 39.7238 256.5275 1.5818 268.5005 47.9558 276.5635 12.4808 285.5085 38.5148 292.1235 27.0368 314.6155 27.0368 314.6155 30.0368 293.8575 30.0368 284.8155 45.7278 277.3335 23.9508"></polygon>
            <path d="M277.9941,12.0269 L277.9941,7.6199 C277.9941,6.2429 276.8791,5.1279 275.5031,5.1279 C274.1271,5.1279 273.0121,6.2429 273.0121,7.6199 L273.0121,22.6269 L276.1871,8.3279 C276.1441,8.3209 277.9941,12.0269 277.9941,12.0269" id="Fill-46" fill="#BE1F2E"></path>
            <path d="M265.7812,3.2402 C265.7812,1.8642 264.6652,0.7482 263.2892,0.7482 C261.9122,0.7482 260.7972,1.8642 260.7972,3.2402 L260.7972,12.1182 L265.7812,31.4222 L265.7812,3.2402 Z" id="Fill-47" fill="#BE1F2E"></path>
            <path d="M260.7969,60.167 C260.7969,61.543 261.9129,62.659 263.2889,62.659 C264.6659,62.659 265.7809,61.543 265.7809,60.167 L265.7809,56.679 L260.7969,37.258 L260.7969,60.167 Z" id="Fill-48" fill="#BE1F2E"></path>
            <path d="M273.2295,48.9849 L273.0425,49.9209 C273.2925,51.0319 274.2835,51.8659 275.4705,51.8659 C276.8475,51.8659 277.9625,50.7489 277.9625,49.3739 L277.9625,30.3999 L277.6335,29.4419 L273.2295,48.9849 Z" id="Fill-49" fill="#BE1F2E"></path>
            <path d="M195.5645,30.3398 C195.5645,31.1968 194.8695,31.8918 194.0125,31.8918 C193.1555,31.8918 192.4605,31.1968 192.4605,30.3398 C192.4605,29.4828 193.1555,28.7868 194.0125,28.7868 C194.8695,28.7868 195.5645,29.4828 195.5645,30.3398" id="Fill-50" fill="#1A1F46"></path>
            <path d="M316.125,28.5371 C316.125,29.3721 315.449,30.0481 314.615,30.0481 C313.78,30.0481 313.104,29.3721 313.104,28.5371 C313.104,27.7031 313.78,27.0261 314.615,27.0261 C315.449,27.0261 316.125,27.7031 316.125,28.5371" id="Fill-51" fill="#1A1F46"></path>
        </g>
    </g>
</svg>