<?xml version="1.0" encoding="UTF-8"?>
<svg width="417px" height="40px" viewBox="0 0 417 40" version="1.1" xmlns="http://www.w3.org/2000/svg" xmlns:xlink="http://www.w3.org/1999/xlink">
    <!-- Generator: Sketch 41.1 (35376) - http://www.bohemiancoding.com/sketch -->
    <title>Page 1</title>
    <desc>Created with Sketch.</desc>
    <defs></defs>
    <g id="Page-1" stroke="none" stroke-width="1" fill="none" fill-rule="evenodd">
        <g>
            <path d="M5.7168,26.9678 L12.7328,26.9678 C18.2798,26.9678 22.5208,22.8488 22.5208,17.0568 C22.5208,11.2238 18.1568,7.0638 12.5288,7.0638 L5.7168,7.0638 L5.7168,26.9678 Z M12.6098,2.7398 C21.1748,2.7398 27.3748,8.7368 27.3748,17.0158 C27.3748,25.2548 21.1338,31.2908 12.4878,31.2908 L0.9048,31.2908 L0.9048,2.7398 L12.6098,2.7398 Z" id="Fill-1" fill="#BE1F2E"></path>
            <polygon id="Fill-3" fill="#BE1F2E" points="52.5391 31.291 37.3251 10.816 37.3251 31.291 32.5131 31.291 32.5131 2.74 37.2441 2.74 52.5391 23.256 52.5391 2.74 57.2691 2.74 57.2691 31.291"></polygon>
            <path d="M76.0303,7.8799 L70.6463,20.5649 L81.4143,20.5649 L76.0303,7.8799 Z M68.8513,24.8469 L66.1193,31.2909 L61.1023,31.2909 L73.7063,2.7399 L78.6403,2.7399 L91.1223,31.2909 L85.9823,31.2909 L83.2503,24.8469 L68.8513,24.8469 Z" id="Fill-4" fill="#BE1F2E"></path>
            <polygon id="Fill-5" fill="#1A1F46" points="98.625 31.291 90.224 9.593 95.117 9.593 101.154 26.682 107.108 9.593 111.8 9.593 103.479 31.291"></polygon>
            <path d="M115.062,9.593 L119.711,9.593 L119.711,31.291 L115.062,31.291 L115.062,9.593 Z M120.119,3.393 C120.119,5.024 118.937,6.207 117.386,6.207 C115.836,6.207 114.653,5.024 114.653,3.393 C114.653,1.721 115.836,0.538 117.386,0.538 C118.937,0.538 120.119,1.721 120.119,3.393 L120.119,3.393 Z" id="Fill-6" fill="#1A1F46"></path>
            <path d="M140.7158,11.5908 L139.0028,15.0578 C137.0858,13.8748 134.6798,13.1408 132.7628,13.1408 C130.9268,13.1408 129.5808,13.7528 129.5808,15.3028 C129.5808,19.2998 141.1238,17.1378 141.0828,25.0098 C141.0828,29.4558 137.1268,31.4538 132.7628,31.4538 C129.5808,31.4538 126.1948,30.3938 124.0338,28.4358 L125.7058,25.0918 C127.5818,26.7638 130.6008,27.7828 132.9668,27.7828 C134.9648,27.7828 136.5148,27.0898 136.5148,25.4588 C136.5148,21.0128 125.0948,23.5008 125.1358,15.6698 C125.1358,11.2648 128.9688,9.3888 133.1298,9.3888 C135.8618,9.3888 138.7578,10.2038 140.7158,11.5908" id="Fill-7" fill="#1A1F46"></path>
            <path d="M165.5127,31.291 L160.8227,31.291 L160.8227,27.049 C159.3547,30.067 156.6207,31.413 153.0737,31.454 C148.0967,31.454 145.1187,28.272 145.1187,23.093 L145.1187,9.593 L149.8097,9.593 L149.8097,21.788 C149.8097,25.051 151.7267,27.049 154.8667,27.049 C158.6197,26.968 160.8227,24.071 160.8227,20.278 L160.8227,9.593 L165.5127,9.593 L165.5127,31.291 Z" id="Fill-8" fill="#1A1F46"></path>
            <path d="M185.416,23.6641 L185.416,21.6651 L179.543,21.6651 C176.483,21.6651 175.056,22.4811 175.056,24.5611 C175.056,26.5181 176.646,27.7831 179.257,27.7831 C182.602,27.7831 185.171,26.0291 185.416,23.6641 L185.416,23.6641 Z M185.457,28.6401 C183.906,30.5571 181.419,31.4951 178.278,31.4951 C173.588,31.4951 170.651,28.5991 170.651,24.7651 C170.651,20.8091 173.629,18.2801 178.85,18.2391 L185.416,18.2391 L185.416,17.5871 C185.416,14.8531 183.662,13.2231 180.236,13.2231 C178.156,13.2231 175.994,13.9571 173.832,15.4251 L171.915,12.1621 C174.934,10.3671 177.136,9.4301 181.256,9.4301 C186.844,9.4301 189.984,12.2841 190.024,17.0571 L190.065,31.2911 L185.457,31.2911 L185.457,28.6401 Z" id="Fill-9" fill="#1A1F46"></path>
            <polygon id="Fill-10" fill="#1A1F46" points="196.55 1.027 201.24 1.027 201.24 31.291 196.55 31.291"></polygon>
            <path d="M208.377,9.593 L213.027,9.593 L213.027,31.291 L208.377,31.291 L208.377,9.593 Z M213.435,3.393 C213.435,5.024 212.252,6.207 210.702,6.207 C209.152,6.207 207.97,5.024 207.97,3.393 C207.97,1.721 209.152,0.538 210.702,0.538 C212.252,0.538 213.435,1.721 213.435,3.393 L213.435,3.393 Z" id="Fill-11" fill="#1A1F46"></path>
            <polygon id="Fill-12" fill="#1A1F46" points="224.1201 27.457 236.8871 27.498 236.8871 31.332 218.3291 31.291 218.3291 28.109 230.7271 13.427 218.6961 13.427 218.6961 9.593 236.5191 9.633 236.5191 12.773"></polygon>
            <path d="M254.4238,23.6641 L254.4238,21.6651 L248.5508,21.6651 C245.4918,21.6651 244.0648,22.4811 244.0648,24.5611 C244.0648,26.5181 245.6548,27.7831 248.2658,27.7831 C251.6098,27.7831 254.1798,26.0291 254.4238,23.6641 L254.4238,23.6641 Z M254.4648,28.6401 C252.9148,30.5571 250.4268,31.4951 247.2858,31.4951 C242.5958,31.4951 239.6588,28.5991 239.6588,24.7651 C239.6588,20.8091 242.6368,18.2801 247.8578,18.2391 L254.4238,18.2391 L254.4238,17.5871 C254.4238,14.8531 252.6698,13.2231 249.2438,13.2231 C247.1638,13.2231 245.0018,13.9571 242.8408,15.4251 L240.9238,12.1621 C243.9428,10.3671 246.1448,9.4301 250.2638,9.4301 C255.8518,9.4301 258.9918,12.2841 259.0328,17.0571 L259.0738,31.2911 L254.4648,31.2911 L254.4648,28.6401 Z" id="Fill-13" fill="#1A1F46"></path>
            <path d="M277.6309,29.9043 C275.9179,30.9243 274.1229,31.4953 272.2869,31.4953 C269.0249,31.4953 266.2099,29.6193 266.2099,25.1733 L266.2099,13.9163 L263.1519,13.9163 L263.1519,10.4083 L266.2099,10.4083 L266.2099,4.4533 L270.8599,4.4533 L270.8599,10.4083 L277.2639,10.4083 L277.2639,13.9163 L270.8599,13.9163 L270.8599,24.3163 C270.8599,26.5593 271.7169,27.2533 273.1849,27.2533 C274.1639,27.2533 275.1839,26.9263 276.4479,26.3153 L277.6309,29.9043 Z" id="Fill-14" fill="#1A1F46"></path>
            <path d="M281.953,9.593 L286.603,9.593 L286.603,31.291 L281.953,31.291 L281.953,9.593 Z M287.011,3.393 C287.011,5.024 285.828,6.207 284.278,6.207 C282.729,6.207 281.546,5.024 281.546,3.393 C281.546,1.721 282.729,0.538 284.278,0.538 C285.828,0.538 287.011,1.721 287.011,3.393 L287.011,3.393 Z" id="Fill-15" fill="#1A1F46"></path>
            <path d="M296.1875,20.4824 C296.1875,24.6834 298.9195,27.5394 302.8355,27.5394 C306.7105,27.5394 309.4435,24.6834 309.4435,20.4824 C309.4435,16.3224 306.7105,13.4664 302.8355,13.4664 C298.9195,13.4664 296.1875,16.3224 296.1875,20.4824 M314.1335,20.4414 C314.1335,26.9674 309.5245,31.4544 302.8355,31.4544 C296.1065,31.4544 291.4975,26.9674 291.4975,20.4414 C291.4975,13.8754 296.1065,9.4294 302.8355,9.4294 C309.5245,9.4294 314.1335,13.8754 314.1335,20.4414" id="Fill-16" fill="#1A1F46"></path>
            <path d="M339.7881,17.791 L339.7881,31.291 L335.0971,31.291 L335.0971,19.096 C335.0971,15.833 333.1401,13.834 329.8761,13.834 C326.2871,13.875 324.0441,16.363 323.7181,19.748 L323.7181,31.291 L319.0271,31.291 L319.0271,9.593 L323.7181,9.593 L323.7181,13.753 C325.2671,10.734 328.0411,9.43 331.7121,9.43 C336.7691,9.43 339.7881,12.61 339.7881,17.791" id="Fill-17" fill="#1A1F46"></path>
            <path d="M349.6162,28.9258 C349.6162,30.5158 348.5142,31.6578 347.0472,31.6578 C345.5782,31.6578 344.4762,30.5158 344.4762,28.9258 C344.4762,27.3758 345.5782,26.2748 347.0472,26.2748 C348.5142,26.2748 349.6162,27.3758 349.6162,28.9258" id="Fill-18" fill="#808285"></path>
            <path d="M357.6094,20.4824 C357.6094,24.6834 360.3414,27.5394 364.2574,27.5394 C368.1324,27.5394 370.8654,24.6834 370.8654,20.4824 C370.8654,16.3224 368.1324,13.4664 364.2574,13.4664 C360.3414,13.4664 357.6094,16.3224 357.6094,20.4824 M375.5554,20.4414 C375.5554,26.9674 370.9464,31.4544 364.2574,31.4544 C357.5284,31.4544 352.9194,26.9674 352.9194,20.4414 C352.9194,13.8754 357.5284,9.4294 364.2574,9.4294 C370.9464,9.4294 375.5554,13.8754 375.5554,20.4414" id="Fill-19" fill="#808285"></path>
            <path d="M385.1396,13.916 C386.6076,10.979 389.2176,9.43 392.6446,9.43 L392.6446,13.916 C388.2806,13.671 385.5066,16.24 385.1396,19.952 L385.1396,31.291 L380.4496,31.291 L380.4496,9.593 L385.1396,9.593 L385.1396,13.916 Z" id="Fill-20" fill="#808285"></path>
            <path d="M411.4463,19.8711 C411.4463,15.9551 408.8773,13.2231 405.2063,13.2231 C401.4943,13.2231 398.9253,15.9961 398.8833,19.8711 C398.9253,23.7861 401.4533,26.5591 405.2063,26.5591 C408.8773,26.5591 411.4463,23.7861 411.4463,19.8711 L411.4463,19.8711 Z M416.0953,29.1701 C416.0953,35.4101 411.6503,39.3261 404.8393,39.3261 C401.4533,39.3261 398.4763,38.2661 395.8253,36.4711 L397.8233,33.0861 C399.8633,34.5951 401.9833,35.4511 404.6343,35.4511 C408.7553,35.4511 411.4463,33.0451 411.4463,29.2921 L411.4463,26.5591 C409.9773,28.9261 407.5313,30.2301 404.2673,30.2301 C398.3943,30.2301 394.4793,25.9881 394.4793,19.7481 C394.4793,13.6301 398.3533,9.4701 404.1043,9.4301 C407.4493,9.3891 409.9373,10.7341 411.4463,13.1001 L411.4463,9.5931 L416.0953,9.5931 L416.0953,29.1701 Z" id="Fill-21" fill="#808285"></path>
        </g>
    </g>
</svg>